<?xml version="1.0" encoding="UTF-8"?>
<svg width="24px" height="23px" viewBox="0 0 24 23" version="1.1" xmlns="http://www.w3.org/2000/svg" xmlns:xlink="http://www.w3.org/1999/xlink">
    <!-- Generator: Sketch 49.3 (51167) - http://www.bohemiancoding.com/sketch -->
    <title>ADMIN</title>
    <desc>Created with Sketch.</desc>
    <defs></defs>
    <g id="ADMIN" stroke="none" stroke-width="1" fill="none" fill-rule="evenodd">
        <g id="icons/highlight">
            <rect id="Rectangle" x="0" y="0" width="24" height="24"></rect>
            <path d="M7.33006211,10.614034 L7.33006211,14.8139703 L4.03843172,14.8139703 C3.90542146,14.8139703 3.77789304,14.7609729 3.68405904,14.6667025 L2.4827387,13.4597951 C2.38975465,13.3663786 2.33741779,13.2400253 2.33711271,13.1082202 L2.33466417,11.1151912 C2.33402502,10.8390496 2.55736391,10.6146744 2.83350555,10.6140353 L7.33006211,10.614034 Z M9.13226261,9.69116777 L21.3346628,9.69116777 C21.8869476,9.69116777 22.3346628,10.138883 22.3346628,10.6911678 L22.3346628,14.6911678 C22.3346628,15.2434525 21.8869476,15.6911678 21.3346628,15.6911678 L9.13226261,15.6911678 C8.57997786,15.6911678 8.13226261,15.2434525 8.13226261,14.6911678 L8.13226261,10.6911678 C8.13226261,10.138883 8.57997786,9.69116777 9.13226261,9.69116777 Z" id="Combined-Shape" fill="#626262" transform="translate(12.334663, 12.691168) rotate(-45.000000) translate(-12.334663, -12.691168) "></path>
        </g>
    </g>
</svg>