<?xml version="1.0" encoding="UTF-8"?>
<svg width="24px" height="23px" viewBox="0 0 24 23" version="1.1" xmlns="http://www.w3.org/2000/svg" xmlns:xlink="http://www.w3.org/1999/xlink">
    <!-- Generator: Sketch 49.3 (51167) - http://www.bohemiancoding.com/sketch -->
    <title>ME</title>
    <desc>Created with Sketch.</desc>
    <defs></defs>
    <g id="ME" stroke="none" stroke-width="1" fill="none" fill-rule="evenodd">
        <g id="icons/me-copy" transform="translate(0.000000, -10.000000)">
            <rect id="Rectangle" x="0" y="0" width="24" height="24"></rect>
            <path d="M11.8742916,23.9574021 C10.0326208,23.6960487 8.656179,22.2798017 8.3988806,20.5746255 L8.0143973,18.0129512 C7.65585303,15.6196131 9.35862454,13.3962576 11.8178115,13.0464146 C14.2769984,12.6973947 16.5621429,14.354416 16.9215239,16.7489888 C16.9842796,17.1716816 16.9792592,17.6104259 16.9215239,18.0129512 L16.5366223,20.5746255 C16.2090375,22.761762 14.1209459,24.2771998 11.8742916,23.9574021 Z M12.3604592,26 C17.8136025,26 20.9191059,27.2355999 21.6769694,29.7067998 C21.8388994,30.2348122 21.542131,30.7941211 21.0141185,30.9560511 C20.9191117,30.9851876 20.8202926,31 20.7209184,31 L3.99999997,31 C3.44771524,31 3,30.5522847 3,30 C3,29.9006258 3.01481239,29.8018066 3.04394892,29.7067998 C3.80181245,27.2355999 6.90731587,26 12.3604592,26 Z" id="me" fill="#626262"></path>
        </g>
    </g>
</svg>