<?xml version="1.0" encoding="UTF-8"?>
<svg width="24px" height="23px" viewBox="0 0 24 23" version="1.1" xmlns="http://www.w3.org/2000/svg" xmlns:xlink="http://www.w3.org/1999/xlink">
    <!-- Generator: Sketch 49.3 (51167) - http://www.bohemiancoding.com/sketch -->
    <title>TO DO</title>
    <desc>Created with Sketch.</desc>
    <defs></defs>
    <g id="TO-DO" stroke="none" stroke-width="1" fill="none" fill-rule="evenodd">
        <g id="icons/read" transform="translate(-1.000000, -3.000000)">
            <rect id="Rectangle" x="0" y="0" width="24" height="24"></rect>
            <path d="M19,21.9963011 L19.0000254,22.9899744 C19.0000254,23.5422732 18.5522988,23.9899998 18,23.9899998 C17.9987855,23.9899998 17.9975711,23.9899976 17.9963566,23.9899931 C11.1366074,23.9650008 7.68073696,23.9507898 7.62874527,23.9473601 C5.87657998,23.8317757 5.00101111,22.8481658 5.00203866,20.9965302 C5.00476049,16.0917804 5.00408174,14.4011067 5.00000241,9.92165023 C4.99820752,7.9507068 5.99820752,7 8.00000241,7 L20,6.99994544 C20.5522847,6.99994312 21.0000019,7.4476565 21.0000042,7.99994125 L21,20.9963011 C21,21.5485859 20.5522847,21.9963011 20,21.9963011 L19,21.9963011 Z M19.4658421,7.99975341 L9,7.99975341 C7.81077175,7.99975341 7.14410509,8.3338352 7,9.00199879 L18,9.00199879 C18.5522847,9.00199879 19,9.44971404 19,10.0019988 L19,20.9965477 L19.4986315,20.9965477 C19.7747739,20.9965477 19.9986315,20.7726901 19.9986315,20.4965477 C19.9986315,20.4960922 19.9986309,20.4956367 19.9986297,20.4951811 L19.9658403,8.49838682 C19.965087,8.22277901 19.741451,7.99975341 19.4658421,7.99975341 Z" id="Combined-Shape" fill="#626262"></path>
        </g>
    </g>
</svg>